<?xml version="1.0" encoding="UTF-8" standalone="no"?>
<!-- Created with Inkscape (http://www.inkscape.org/) -->

<svg
   xmlns:dc="http://purl.org/dc/elements/1.1/"
   xmlns:cc="http://creativecommons.org/ns#"
   xmlns:rdf="http://www.w3.org/1999/02/22-rdf-syntax-ns#"
   xmlns:svg="http://www.w3.org/2000/svg"
   xmlns="http://www.w3.org/2000/svg"
   xmlns:xlink="http://www.w3.org/1999/xlink"
   xmlns:sodipodi="http://sodipodi.sourceforge.net/DTD/sodipodi-0.dtd"
   xmlns:inkscape="http://www.inkscape.org/namespaces/inkscape"
   version="1.0"
   width="363"
   height="318"
   id="svg2"
   style="enable-background:new"
   inkscape:version="0.48.1 r9760"
   sodipodi:docname="title_logo.svg">
  <metadata
     id="metadata74">
    <rdf:RDF>
      <cc:Work
         rdf:about="">
        <dc:format>image/svg+xml</dc:format>
        <dc:type
           rdf:resource="http://purl.org/dc/dcmitype/StillImage" />
      </cc:Work>
    </rdf:RDF>
  </metadata>
  <sodipodi:namedview
     pagecolor="#ffffff"
     bordercolor="#666666"
     borderopacity="1"
     objecttolerance="10"
     gridtolerance="10"
     guidetolerance="10"
     inkscape:pageopacity="0"
     inkscape:pageshadow="2"
     inkscape:window-width="1009"
     inkscape:window-height="833"
     id="namedview72"
     showgrid="false"
     inkscape:zoom="0.88679245"
     inkscape:cx="183.75532"
     inkscape:cy="159"
     inkscape:window-x="0"
     inkscape:window-y="26"
     inkscape:window-maximized="0"
     inkscape:current-layer="svg2" />
  <defs
     id="defs5">
    <linearGradient
       id="linearGradient6430">
      <stop
         id="stop6432"
         style="stop-color:#ce0000;stop-opacity:1"
         offset="0" />
      <stop
         id="stop6434"
         style="stop-color:#e90000;stop-opacity:1"
         offset="1" />
    </linearGradient>
    <linearGradient
       id="linearGradient3218">
      <stop
         id="stop3220"
         style="stop-color:#000000;stop-opacity:1"
         offset="0" />
      <stop
         id="stop3222"
         style="stop-color:#555753;stop-opacity:1"
         offset="1" />
    </linearGradient>
    <linearGradient
       id="linearGradient3210">
      <stop
         id="stop3212"
         style="stop-color:#edd400;stop-opacity:1"
         offset="0" />
      <stop
         id="stop3214"
         style="stop-color:#fce94f;stop-opacity:1"
         offset="1" />
    </linearGradient>
    <linearGradient
       id="linearGradient3558">
      <stop
         id="stop3560"
         style="stop-color:#4bc6ff;stop-opacity:1"
         offset="0" />
      <stop
         id="stop3562"
         style="stop-color:#1fb7ff;stop-opacity:0"
         offset="1" />
    </linearGradient>
    <linearGradient
       id="linearGradient2652">
      <stop
         id="stop2654"
         style="stop-color:#ef5d29;stop-opacity:1"
         offset="0" />
      <stop
         id="stop2656"
         style="stop-color:#ef2929;stop-opacity:0"
         offset="1" />
    </linearGradient>
    <linearGradient
       id="linearGradient3770">
      <stop
         id="stop3772"
         style="stop-color:#999999;stop-opacity:0"
         offset="0" />
      <stop
         id="stop3774"
         style="stop-color:#cccccc;stop-opacity:1"
         offset="0.28968501" />
      <stop
         id="stop3776"
         style="stop-color:#cccccc;stop-opacity:1"
         offset="0.72421253" />
      <stop
         id="stop3778"
         style="stop-color:#999999;stop-opacity:0"
         offset="1" />
    </linearGradient>
    <linearGradient
       id="linearGradient3578">
      <stop
         id="stop3580"
         style="stop-color:#999999;stop-opacity:1"
         offset="0" />
      <stop
         id="stop3582"
         style="stop-color:#ffffff;stop-opacity:1"
         offset="1" />
    </linearGradient>
    <linearGradient
       x1="292.98209"
       y1="248.94519"
       x2="292.71686"
       y2="254.84595"
       id="linearGradient3605"
       xlink:href="#linearGradient3578"
       gradientUnits="userSpaceOnUse" />
    <linearGradient
       x1="579.61249"
       y1="-2053.46"
       x2="633.25787"
       y2="-2073.55"
       id="linearGradient3607"
       xlink:href="#linearGradient3770"
       gradientUnits="userSpaceOnUse"
       gradientTransform="matrix(0.8697037,0.5377184,-5.0885591e-2,2.0041935,-132.86485,4079.057)" />
    <linearGradient
       x1="579.61249"
       y1="-2053.46"
       x2="633.25787"
       y2="-2073.55"
       id="linearGradient3609"
       xlink:href="#linearGradient3770"
       gradientUnits="userSpaceOnUse"
       gradientTransform="matrix(0.8697037,0.5377184,-5.0885591e-2,2.0041935,-132.86485,4082.0622)" />
    <linearGradient
       x1="579.61249"
       y1="-2053.46"
       x2="633.25787"
       y2="-2073.55"
       id="linearGradient3611"
       xlink:href="#linearGradient3770"
       gradientUnits="userSpaceOnUse"
       gradientTransform="matrix(0.8697037,0.5377184,-5.0885591e-2,2.0041935,-132.86485,4085.0674)" />
    <linearGradient
       x1="579.61249"
       y1="-2053.46"
       x2="633.25787"
       y2="-2073.55"
       id="linearGradient3613"
       xlink:href="#linearGradient3770"
       gradientUnits="userSpaceOnUse"
       gradientTransform="matrix(0.8697037,0.5377184,-5.0885591e-2,2.0041935,-132.86485,4088.0726)" />
    <radialGradient
       cx="308.00009"
       cy="237.60178"
       r="13.826746"
       fx="308.00009"
       fy="237.60178"
       id="radialGradient3615"
       xlink:href="#linearGradient2652"
       gradientUnits="userSpaceOnUse"
       gradientTransform="matrix(-2.470026,1.2123383,-2.5289897,-1.8798194,1652.7116,307.88628)" />
    <radialGradient
       cx="313.97348"
       cy="257.40872"
       r="4.0046649"
       fx="313.97348"
       fy="257.40872"
       id="radialGradient3617"
       xlink:href="#linearGradient3558"
       gradientUnits="userSpaceOnUse"
       gradientTransform="matrix(-1.2239386,0.8005673,-1.1669368,-1.1126277,983.68752,289.08822)" />
    <linearGradient
       x1="121.62237"
       y1="166.88406"
       x2="121.62236"
       y2="63.590191"
       id="linearGradient3216"
       xlink:href="#linearGradient3210"
       gradientUnits="userSpaceOnUse"
       gradientTransform="matrix(0.9919329,0,0,0.9919329,1.4358062,0.4522511)" />
    <linearGradient
       x1="282.13562"
       y1="198.85522"
       x2="282.13562"
       y2="220.4299"
       id="linearGradient3224"
       xlink:href="#linearGradient3218"
       gradientUnits="userSpaceOnUse" />
    <linearGradient
       x1="282.13562"
       y1="198.85522"
       x2="282.13562"
       y2="220.4299"
       id="linearGradient6356"
       xlink:href="#linearGradient3218"
       gradientUnits="userSpaceOnUse"
       gradientTransform="translate(0,3.1983471)" />
    <filter
       id="filter6426">
      <feGaussianBlur
         id="feGaussianBlur6428"
         stdDeviation="1.3718847"
         inkscape:collect="always" />
    </filter>
    <linearGradient
       x1="313.12421"
       y1="234.06723"
       x2="300.74551"
       y2="252.48558"
       id="linearGradient6436"
       xlink:href="#linearGradient6430"
       gradientUnits="userSpaceOnUse" />
    <filter
       height="1.2099621"
       y="-0.10498104"
       width="1.0989299"
       x="-0.049464952"
       id="filter6542">
      <feGaussianBlur
         id="feGaussianBlur6544"
         stdDeviation="2.6872547"
         inkscape:collect="always" />
    </filter>
    <filter
       id="filter6596">
      <feGaussianBlur
         id="feGaussianBlur6598"
         stdDeviation="1.7274814"
         inkscape:collect="always" />
    </filter>
    <linearGradient
       x1="180"
       y1="163.62605"
       x2="180"
       y2="66.188019"
       id="linearGradient6600"
       xlink:href="#linearGradient3218"
       gradientUnits="userSpaceOnUse" />
    <filter
       id="filter6626">
      <feBlend
         id="feBlend6628"
         in2="BackgroundImage"
         mode="multiply"
         inkscape:collect="always" />
    </filter>
  </defs>
  <path
     d="M 192.86534,56.061481 C 192.36173,56.001958 177.04791,71.601258 169.88288,78.655471 C 176.27757,76.632509 187.258,72.858149 188.75784,73.035772 C 190.25845,73.213382 198.81453,79.323493 203.90158,82.70395 C 200.45634,74.408167 193.36963,56.121106 192.86534,56.061481 z M 256.56564,75.679414 C 256.19703,75.470177 226.37543,82.344843 212.67149,85.374045 C 220.32408,85.916589 233.75821,86.605813 234.85605,87.228257 C 235.95576,87.851868 236.78146,95.293021 237.53092,99.511345 C 243.45051,92.092902 256.93475,75.888665 256.56564,75.679414 z M 125.42293,59.592937 C 124.97638,59.705437 130.08281,78.06997 132.18928,86.449319 C 134.88117,82.633972 139.1244,75.81667 140.45346,75.481547 C 141.78428,75.14601 154.86419,77.615692 162.3432,78.86324 C 150.84856,72.862022 125.86977,59.480312 125.42293,59.592937 z M 290.22827,111.27313 C 290.13546,110.99458 257.1852,106.5389 242.18642,104.38604 C 248.17919,107.28669 258.97529,112.18749 259.25143,113.01669 C 259.52792,113.84738 252.26311,119.75777 248.38968,123.20613 C 261.40772,119.49699 290.32106,111.5521 290.22827,111.27313 z M 125.48113,90.005528 C 110.30347,88.587271 77.076206,85.20923 76.857612,85.45104 C 76.63901,85.692911 100.20589,99.814697 110.77468,106.3235 C 108.73772,102.17566 104.66761,94.929258 105.31915,94.208612 C 105.96936,93.48931 118.45677,91.365927 125.48113,90.005528 z M 247.14367,128.41486 C 249.1807,132.56293 253.25058,139.80912 252.59919,140.52974 C 251.94886,141.24904 239.46162,143.37243 232.43729,144.7328 C 247.61504,146.15105 280.8422,149.52911 281.06077,149.2873 C 281.27943,149.04544 257.71247,134.92365 247.14367,128.41486 z M 107.57689,111.87714 C 94.559095,115.58622 65.645568,123.53114 65.738468,123.81028 C 65.83118,124.08875 98.781509,128.54433 113.78023,130.6972 C 107.78763,127.79653 96.991334,122.89566 96.715376,122.06653 C 96.438807,121.23574 103.70368,115.32544 107.57689,111.87714 z M 225.72916,148.289 C 223.03722,152.10435 218.79412,158.92166 217.46494,159.2568 C 216.13407,159.59235 203.05422,157.12265 195.57518,155.87511 C 207.06981,161.87632 232.0487,175.2581 232.49567,175.14539 C 232.94189,175.03294 227.83555,156.66839 225.72916,148.289 z M 118.43579,135.57189 C 112.51623,142.99034 99.032017,159.19458 99.401191,159.40382 C 99.769581,159.61299 129.59124,152.73839 143.29535,149.70918 C 135.64251,149.16662 122.20862,148.4774 121.11055,147.85492 C 120.01096,147.23135 119.18522,139.79024 118.43579,135.57189 z M 186.08383,156.42778 C 179.68914,158.45076 168.70875,162.2251 167.2089,162.04747 C 165.70846,161.86983 157.15205,155.75978 152.06515,152.37921 C 155.51037,160.67499 162.59724,178.96218 163.10148,179.02172 C 163.6049,179.08114 178.91889,163.48205 186.08383,156.42778 z"
     transform="matrix(1,0,0,1.0406634,0,-1.2796452)"
     id="path6546"
     style="opacity:0.35096154;fill:url(#linearGradient6600);fill-opacity:1;filter:url(#filter6596)" />
  <path
     d="M 192.86534,56.061481 C 192.36173,56.001958 177.04791,71.601258 169.88288,78.655471 C 176.27757,76.632509 187.258,72.858149 188.75784,73.035772 C 190.25845,73.213382 198.81453,79.323493 203.90158,82.70395 C 200.45634,74.408167 193.36963,56.121106 192.86534,56.061481 z M 256.56564,75.679414 C 256.19703,75.470177 226.37543,82.344843 212.67149,85.374045 C 220.32408,85.916589 233.75821,86.605813 234.85605,87.228257 C 235.95576,87.851868 236.78146,95.293021 237.53092,99.511345 C 243.45051,92.092902 256.93475,75.888665 256.56564,75.679414 z M 125.42293,59.592937 C 124.97638,59.705437 130.08281,78.06997 132.18928,86.449319 C 134.88117,82.633972 139.1244,75.81667 140.45346,75.481547 C 141.78428,75.14601 154.86419,77.615692 162.3432,78.86324 C 150.84856,72.862022 125.86977,59.480312 125.42293,59.592937 z M 290.22827,111.27313 C 290.13546,110.99458 257.1852,106.5389 242.18642,104.38604 C 248.17919,107.28669 258.97529,112.18749 259.25143,113.01669 C 259.52792,113.84738 252.26311,119.75777 248.38968,123.20613 C 261.40772,119.49699 290.32106,111.5521 290.22827,111.27313 z M 125.48113,90.005528 C 110.30347,88.587271 77.076206,85.20923 76.857612,85.45104 C 76.63901,85.692911 100.20589,99.814697 110.77468,106.3235 C 108.73772,102.17566 104.66761,94.929258 105.31915,94.208612 C 105.96936,93.48931 118.45677,91.365927 125.48113,90.005528 z M 247.14367,128.41486 C 249.1807,132.56293 253.25058,139.80912 252.59919,140.52974 C 251.94886,141.24904 239.46162,143.37243 232.43729,144.7328 C 247.61504,146.15105 280.8422,149.52911 281.06077,149.2873 C 281.27943,149.04544 257.71247,134.92365 247.14367,128.41486 z M 107.57689,111.87714 C 94.559095,115.58622 65.645568,123.53114 65.738468,123.81028 C 65.83118,124.08875 98.781509,128.54433 113.78023,130.6972 C 107.78763,127.79653 96.991334,122.89566 96.715376,122.06653 C 96.438807,121.23574 103.70368,115.32544 107.57689,111.87714 z M 225.72916,148.289 C 223.03722,152.10435 218.79412,158.92166 217.46494,159.2568 C 216.13407,159.59235 203.05422,157.12265 195.57518,155.87511 C 207.06981,161.87632 232.0487,175.2581 232.49567,175.14539 C 232.94189,175.03294 227.83555,156.66839 225.72916,148.289 z M 118.43579,135.57189 C 112.51623,142.99034 99.032017,159.19458 99.401191,159.40382 C 99.769581,159.61299 129.59124,152.73839 143.29535,149.70918 C 135.64251,149.16662 122.20862,148.4774 121.11055,147.85492 C 120.01096,147.23135 119.18522,139.79024 118.43579,135.57189 z M 186.08383,156.42778 C 179.68914,158.45076 168.70875,162.2251 167.2089,162.04747 C 165.70846,161.86983 157.15205,155.75978 152.06515,152.37921 C 155.51037,160.67499 162.59724,178.96218 163.10148,179.02172 C 163.6049,179.08114 178.91889,163.48205 186.08383,156.42778 z"
     id="path3766"
     style="opacity:1;fill:url(#linearGradient3216);fill-opacity:1" />
  <g
     transform="matrix(1.2433595,-5.6480692e-2,-8.5186357e-3,1.1425318,-55.4332,-219.33549)"
     id="g3512"
     style="enable-background:new">
    <g
       transform="matrix(0.7599177,-1.1926916e-2,0,0.7500728,246.58115,378.18196)"
       id="g3514">
      <g
         transform="matrix(2.8294915,-0.5196682,1.922722,2.7658074,-1390.7458,-622.14861)"
         id="g3516">
        <path
           d="M 191.25,92.09375 C 191.04408,92.103424 190.8485,92.112778 190.65625,92.15625 L 129.21875,107.4375 L 114.875,97.78125 L 114.75,111.625 C 114.72317,115.22359 114.67135,116.89138 116.65625,118.1875 L 166.96875,152.28125 C 167.11015,152.39644 167.26105,152.49407 167.40625,152.59375 C 167.71234,152.80388 168.03774,152.99013 168.375,153.125 C 168.43585,153.14933 168.50027,153.16578 168.5625,153.1875 C 169.41417,153.51124 170.34383,153.61414 171.125,153.4375 L 243.65625,136.9375 C 244.42526,136.76361 244.89932,136.35162 245.0625,135.8125 C 245.22566,135.27339 245.08145,134.58978 244.5625,133.9375 L 195.3125,93.90625 C 194.79354,93.253937 193.99666,92.718422 193.15625,92.40625 C 192.52593,92.17214 191.86777,92.064728 191.25,92.09375 z"
           transform="matrix(0.3165905,8.4742567e-2,-0.2518713,0.3747611,270.47662,187.97058)"
           id="path5539"
           style="opacity:0.5;fill:#000000;fill-opacity:1;filter:url(#filter6542)" />
        <path
           d="M 281.53626,237.15326 L 309.04792,236.5462 C 309.33518,236.5462 309.59444,236.6623 309.78189,236.8505 C 309.96933,237.03871 310.08496,237.29903 310.08496,237.58747 L 315.59103,256.77195 C 315.59103,257.06038 315.4754,257.32069 315.28796,257.5089 C 315.10051,257.69711 314.84125,257.81322 314.55399,257.81322 L 287.42625,257.85531 C 286.85174,257.85531 286.38922,257.3909 286.38922,256.81404 L 280.49923,238.19453 C 280.49923,237.61766 280.96175,237.15326 281.53626,237.15326 z"
           id="path3518"
           style="fill:#8d0000;fill-opacity:1" />
        <path
           d="M 293.04884,250.57475 L 317.14147,250.11423 C 315.07369,251.81667 313.3993,254.18879 313.41979,256.35148 L 288.81484,256.43251 C 286.0145,256.29145 290.73785,250.22017 293.04884,250.57475 z"
           id="path3520"
           style="fill:url(#linearGradient3605);fill-opacity:1" />
        <g
           transform="matrix(0.4446532,4.8226295e-2,-0.1333755,0.1962764,116.26445,175.89592)"
           id="g3522">
          <path
             d="M 473.62579,276.25731 L 523.62044,263.93981"
             id="path3524"
             style="fill:none;fill-opacity:1;fill-rule:evenodd;stroke:url(#linearGradient3607);stroke-width:0.731525;stroke-linecap:butt;stroke-linejoin:miter;stroke-miterlimit:4;stroke-dasharray:none;stroke-opacity:1" />
          <path
             d="M 473.62579,279.2625 L 523.62044,266.945"
             id="path3526"
             style="fill:none;fill-opacity:1;fill-rule:evenodd;stroke:url(#linearGradient3609);stroke-width:0.731525;stroke-linecap:butt;stroke-linejoin:miter;stroke-miterlimit:4;stroke-dasharray:none;stroke-opacity:1" />
          <path
             d="M 473.62579,282.26769 L 523.62044,269.95019"
             id="path3528"
             style="fill:none;fill-opacity:1;fill-rule:evenodd;stroke:url(#linearGradient3611);stroke-width:0.731525;stroke-linecap:butt;stroke-linejoin:miter;stroke-miterlimit:4;stroke-dasharray:none;stroke-opacity:1" />
          <path
             d="M 473.62579,285.27287 L 523.62044,272.95537"
             id="path3530"
             style="fill:none;fill-opacity:1;fill-rule:evenodd;stroke:url(#linearGradient3613);stroke-width:0.731525;stroke-linecap:butt;stroke-linejoin:miter;stroke-miterlimit:4;stroke-dasharray:none;stroke-opacity:1" />
        </g>
        <path
           d="M 297.97117,252.53831 C 301.52552,259.77574 299.81365,262.75273 299.81365,262.75273 C 302.15674,261.43854 303.80178,259.85198 304.40731,257.85976 C 306.10363,259.91709 307.68732,262.00721 311.02425,263.58697 C 311.02425,263.58697 308.17102,256.67636 306.99795,252.72547 L 297.97117,252.53831 z"
           id="path3532"
           style="fill:#0093d9;fill-opacity:1;stroke-width:2" />
        <path
           d="M 284.57789,231.78049 L 311.35381,231.98057 C 312.03942,231.98057 312.59137,232.53252 312.59137,233.21812 L 319.65855,249.0056 C 319.65855,249.6912 319.1066,250.24315 318.42099,250.24315 L 291.3756,249.90132 L 283.34033,233.01804 C 283.34033,232.33244 283.89228,231.78049 284.57789,231.78049 z"
           id="path3534"
           style="fill:url(#linearGradient6436);fill-opacity:1" />
        <path
           d="M 280.11847,237.40712 L 283.64185,232.23159 L 291.38621,249.98696 C 288.0188,251.30318 284.32556,257.42055 287.8134,257.83795 C 286.90613,257.86075 286.55779,257.58155 286.41124,257.06853 L 279.07531,240.02171 C 278.77336,239.36777 279.20359,238.75346 280.11847,237.40712 z"
           id="path3536"
           style="fill:#bc0000;fill-opacity:1" />
        <path
           d="M 284.81403,231.70142 L 310.76827,231.67318 C 311.23825,231.67318 311.61659,232.05154 311.61659,232.52151 C 311.84112,239.11592 297.48249,247.99953 290.73174,248.61015 L 283.9657,232.54975 C 283.9657,232.07978 284.34405,231.70142 284.81403,231.70142 z"
           id="path3538"
           style="opacity:1;fill:url(#radialGradient3615);fill-opacity:1" />
        <path
           d="M 300.57764,261.77315 C 303.1027,260.28877 303.97263,258.02948 304.52297,256.35635 C 304.65197,259.11437 310.6776,263.74511 310.02721,262.13276 C 307.93208,256.93882 307.56927,253.43259 306.81477,253.24246 C 305.71856,252.96623 300.52066,253.10078 299.04126,253.01887 C 300.12656,255.20315 300.84486,257.48247 300.57764,261.77315 z"
           id="path3540"
           style="opacity:0.79901961;fill:url(#radialGradient3617);fill-opacity:1;stroke-width:2" />
        <path
           d="M 319.47279,249.25686 C 319.47279,249.94246 319.11267,250.24441 318.42706,250.24441 L 291.96418,250.69265 L 291.35826,249.84959 C 298.49858,249.63625 310.11914,249.64123 319.47279,249.25686 z"
           id="path3542"
           style="fill:#a70000;fill-opacity:1" />
      </g>
    </g>
  </g>
  <g
     id="layer1" />
  <g
     id="layer2"
     style="filter:url(#filter6626)" />
</svg>
